<svg width="158" height="158" viewBox="0 0 158 158" fill="none" xmlns="http://www.w3.org/2000/svg">
<g filter="url(#filter0_d)">
<circle cx="79" cy="75" r="75" fill="#EDEDED"/>
<path d="M32.3558 47.1626L21.345 76.6515C21.345 76.6515 19.7313 79.7206 23.1485 80.5749L27.1352 81.9038C27.1352 81.9038 30.0777 83.2327 31.2168 80.6698C32.3558 78.1069 42.4175 50.3899 42.4175 50.3899C42.4175 50.3899 42.7972 48.5864 41.0886 47.6372L35.3933 45.6438C35.3933 45.6438 33.1785 44.9319 32.3558 47.1626Z" fill="#69B7B3"/>
<path d="M112.833 52.5257L126.992 80.6382C126.992 80.6382 128.147 83.8972 131.09 81.9829L134.776 79.958C134.776 79.958 137.75 78.7082 136.643 76.1295C135.535 73.5508 122.041 47.3367 122.041 47.3367C122.041 47.3367 120.981 45.8337 119.114 46.4349L113.783 49.2667C113.783 49.2667 111.773 50.39 112.833 52.5257Z" fill="#69B7B3"/>
<path d="M74.406 49.9153C74.406 49.9153 71.5584 47.0676 66.9072 49.9153C62.2561 52.7629 57.4151 55.2309 55.7065 55.136C53.998 55.041 51.8148 54.3449 48.1128 51.8928C48.1128 51.8928 47.2585 50.7696 45.1703 56.275C43.082 61.7804 35.9629 80.5749 35.9629 80.5749C35.9629 80.5749 34.9188 82.853 37.2918 84.5616L44.4109 91.5857" stroke="#69B7B3" stroke-width="3" stroke-miterlimit="10"/>
<path d="M109.432 54.1869C109.432 54.1869 104.496 58.5533 100.984 54.9463L91.6817 49.4409C91.6817 49.4409 87.0938 46.5932 79.3735 51.3393C71.6533 56.0854 57.4151 66.3369 57.4151 66.3369C57.4151 66.3369 53.3335 73.8356 61.3069 73.6458L80.2911 63.9005C80.2911 63.9005 82.6642 62.1603 84.3727 64.4384C86.0813 66.7165 112.564 95.5726 112.564 95.5726C112.564 95.5726 123.955 85.8906 124.05 82.5684L109.432 54.1869Z" fill="#69B7B3"/>
<path d="M68.2678 100.002L61.0696 106.33C59.361 107.833 56.7348 107.659 55.2477 105.951C53.7448 104.242 53.9188 101.616 55.6274 100.129L62.8256 93.8006C64.5342 92.2977 67.1603 92.4717 68.6474 94.1803C70.1504 95.8889 69.9763 98.4992 68.2678 100.002Z" fill="#69B7B3"/>
<path d="M78.0763 105.46L68.7898 113.607C67.0812 115.11 64.4551 114.936 62.968 113.228C61.4651 111.519 61.6391 108.893 63.3477 107.406L72.6341 99.2585C74.3427 97.7556 76.9689 97.9296 78.456 99.6382C79.9431 101.347 79.7849 103.973 78.0763 105.46Z" fill="#69B7B3"/>
<path d="M83.1546 114.873L78.4244 119.603C76.8107 121.217 74.1846 121.217 72.5867 119.603C70.973 117.99 70.973 115.364 72.5867 113.766L77.317 109.035C78.9306 107.422 81.5568 107.422 83.1546 109.035C84.7525 110.633 84.7525 113.259 83.1546 114.873Z" fill="#69B7B3"/>
<path d="M53.3651 99.0055L51.9571 100.255C50.2485 101.758 47.6223 101.584 46.1352 99.8756C44.6323 98.167 44.8063 95.5408 46.5149 94.0537L47.9229 92.8039C49.6315 91.301 52.2577 91.475 53.7448 93.1836C55.2477 94.8922 55.0736 97.5025 53.3651 99.0055Z" fill="#69B7B3"/>
<path d="M86.5559 115.886C86.5559 115.886 92.9156 118.164 93.675 110.285V108.292L84.1829 97.376" stroke="#69B7B3" stroke-width="3" stroke-miterlimit="10"/>
<path d="M93.675 90.162L104.116 102.312C104.116 102.312 104.496 108.482 100.984 109.621C97.4718 110.76 95.0988 109.051 93.675 108.292" stroke="#69B7B3" stroke-width="3" stroke-miterlimit="10"/>
<path d="M113.134 100.066C113.134 100.066 111.805 106.489 104.116 102.312" stroke="#69B7B3" stroke-width="3" stroke-miterlimit="10"/>
</g>
<defs>
<filter id="filter0_d" x="0" y="0" width="158" height="158" filterUnits="userSpaceOnUse" color-interpolation-filters="sRGB">
<feFlood flood-opacity="0" result="BackgroundImageFix"/>
<feColorMatrix in="SourceAlpha" type="matrix" values="0 0 0 0 0 0 0 0 0 0 0 0 0 0 0 0 0 0 127 0"/>
<feOffset dy="4"/>
<feGaussianBlur stdDeviation="2"/>
<feColorMatrix type="matrix" values="0 0 0 0 0 0 0 0 0 0 0 0 0 0 0 0 0 0 0.25 0"/>
<feBlend mode="normal" in2="BackgroundImageFix" result="effect1_dropShadow"/>
<feBlend mode="normal" in="SourceGraphic" in2="effect1_dropShadow" result="shape"/>
</filter>
</defs>
</svg>
