<svg width="19" height="14" viewBox="0 0 19 14" fill="none" xmlns="http://www.w3.org/2000/svg">
<path d="M16.5218 13.0042H2.91348C2.11384 13.0042 1.45959 12.2552 1.45959 11.3398V2.68517C1.45959 1.76977 2.11384 1.02081 2.91348 1.02081H16.5218C17.3215 1.02081 17.9757 1.76977 17.9757 2.68517V11.3398C17.9757 12.2552 17.3215 13.0042 16.5218 13.0042Z" fill="#68B7B3"/>
<path d="M10.3403 7.73231L17.9755 2.68516C17.9755 2.68516 18.0337 1.0208 16.5217 1.0208C15.0096 1.0208 3.55316 1.0208 3.55316 1.0208C3.55316 1.0208 1.45959 0.687934 1.45959 2.68516L9.09482 7.73231C9.4801 7.98751 9.95503 7.98751 10.3403 7.73231Z" fill="#AEDBDC" stroke="white" stroke-miterlimit="10"/>
</svg>
