<svg width="14" height="15" viewBox="0 0 14 15" fill="none" xmlns="http://www.w3.org/2000/svg">
<path d="M12.9945 1.84435L6.14277 14.0412C5.93087 14.4161 5.55414 14.6338 5.16564 14.652C5.14209 14.658 5.12443 14.658 5.10089 14.658C4.65941 14.7064 4.20616 14.5008 3.96482 14.0896L0.562509 8.52028C0.438895 8.31468 0.374146 8.09699 0.374146 7.8672C0.374146 7.46205 0.580167 7.05689 0.939235 6.82106C1.49844 6.46428 2.24012 6.6336 2.5933 7.21412L5.00082 11.1568L10.9225 0.616798C11.1462 0.223741 11.5523 0 11.9644 0C12.1704 0 12.3705 0.0544236 12.5589 0.16327C13.124 0.501905 13.3241 1.25778 12.9945 1.84435Z" fill="#69B7B3"/>
</svg>
