<svg width="13" height="14" viewBox="0 0 13 14" fill="none" xmlns="http://www.w3.org/2000/svg">
<path d="M0.970504 1.11113C0.903798 1.1849 0.850434 1.26605 0.817082 1.36195C0.603625 1.89311 -0.0300759 3.75217 0.877117 4.75547L8.19469 12.8483C8.29475 12.9589 8.42149 13.0401 8.56824 13.077C9.26198 13.254 11.3832 13.5712 12.3971 11.2253C12.5372 10.9007 12.4772 10.5171 12.2504 10.2589L11.2431 9.14491C10.9563 8.82769 10.4627 8.79081 10.1892 9.13016C10.0291 9.32196 9.78895 9.47688 9.40873 9.47688C8.54823 9.47688 5.61987 5.65549 4.51256 4.1653C4.26575 3.83332 4.28576 3.34643 4.56592 3.04396C4.87944 2.69723 4.85943 2.12918 4.51923 1.81196L2.78489 0.19636C2.48472 -0.0839737 2.03779 -0.0618423 1.7643 0.248L0.970504 1.11113Z" fill="#69B7B3"/>
</svg>
