<svg width="158" height="158" viewBox="0 0 158 158" fill="none" xmlns="http://www.w3.org/2000/svg">
<g filter="url(#filter0_d)">
<circle cx="79" cy="75" r="75" fill="#EDEDED"/>
<path d="M40.1244 73.0741H51.5159C51.5159 73.0741 53.6558 72.7713 53.8236 75.6095C53.9915 78.4288 53.8236 104.181 53.8236 104.181C53.8236 104.181 53.9915 105.827 51.3481 106.111C48.7048 106.395 40.1244 106.111 40.1244 106.111C40.1244 106.111 38.6349 105.808 38.1523 104.768C37.6489 103.727 38.1523 75.004 38.1523 75.004C38.1523 75.004 38.9705 73.0741 40.1244 73.0741Z" stroke="#69B7B3" stroke-width="5" stroke-miterlimit="10"/>
<path d="M62.0691 74.1146C62.4257 74.1146 62.7614 74.0389 63.0761 73.9065C64.4397 73.282 68.0271 71.0493 71.5516 63.5564C75.9991 54.0767 76.7544 54.966 78.9781 53.3956C81.2019 51.8251 84.3068 48.5895 84.7893 42.686C85.062 39.4126 85.1879 37.7097 85.2299 36.8393C85.2718 36.177 85.6704 35.5526 86.3208 35.2309C87.139 34.8147 88.4187 34.5308 89.9921 35.3255C92.8452 36.7825 95.9291 38.0692 96.5585 45.335C96.5585 45.335 97.4186 48.476 91.7963 57.4448C91.7543 57.5015 91.7124 57.5772 91.6914 57.634C91.4816 58.0881 90.6005 59.9613 90.3907 61.6453C90.2229 62.8374 91.2718 63.897 92.6145 63.897L106.649 63.9916C106.712 63.9916 106.754 63.9916 106.817 63.9916C107.51 63.9538 113.006 63.7456 116.132 67.6245C117.894 69.8005 117.789 72.7901 115.943 74.8904C115.922 74.9093 115.901 74.9471 115.88 74.9661C115.44 75.458 115.293 76.1013 115.461 76.7068C115.607 77.1799 115.838 77.8043 116.279 78.5044C117.642 80.7182 116.74 81.967 116.74 82.3076C116.74 82.6482 113.572 85.5432 114.307 86.9812C114.684 87.7191 115.335 88.7977 115.691 89.9897C116.216 91.6548 115.607 93.4524 114.181 94.6255C113.111 95.4959 111.81 96.7068 111.81 97.3691V99.5451C111.81 101.38 111.013 103.178 109.565 104.465C107.761 106.054 104.698 107.795 99.9361 107.965C90.8942 108.306 82.0201 107.303 82.0201 107.303C82.0201 107.303 68.5306 105.732 61.6915 104.521C60.6425 104.332 59.8873 103.5 59.8873 102.535V76.1392C59.8243 75.0228 60.8313 74.1146 62.0691 74.1146Z" stroke="#69B7B3" stroke-width="5" stroke-miterlimit="10"/>
</g>
<defs>
<filter id="filter0_d" x="0" y="0" width="158" height="158" filterUnits="userSpaceOnUse" color-interpolation-filters="sRGB">
<feFlood flood-opacity="0" result="BackgroundImageFix"/>
<feColorMatrix in="SourceAlpha" type="matrix" values="0 0 0 0 0 0 0 0 0 0 0 0 0 0 0 0 0 0 127 0"/>
<feOffset dy="4"/>
<feGaussianBlur stdDeviation="2"/>
<feColorMatrix type="matrix" values="0 0 0 0 0 0 0 0 0 0 0 0 0 0 0 0 0 0 0.25 0"/>
<feBlend mode="normal" in2="BackgroundImageFix" result="effect1_dropShadow"/>
<feBlend mode="normal" in="SourceGraphic" in2="effect1_dropShadow" result="shape"/>
</filter>
</defs>
</svg>
