<svg width="28" height="28" viewBox="0 0 28 28" fill="none" xmlns="http://www.w3.org/2000/svg">
<path d="M21.9614 26.8049H5.92486C3.19401 26.8049 0.957031 24.5506 0.957031 21.7987V5.63859C0.957031 2.88668 3.19401 0.632454 5.92486 0.632454H21.9614C24.6922 0.632454 26.9292 2.88668 26.9292 5.63859V21.7987C26.9292 24.5506 24.6922 26.8049 21.9614 26.8049Z" stroke="#69B7B3" stroke-miterlimit="10"/>
<path d="M13.9461 19.446C17.084 19.446 19.6278 16.8826 19.6278 13.7205C19.6278 10.5584 17.084 7.995 13.9461 7.995C10.8082 7.995 8.2644 10.5584 8.2644 13.7205C8.2644 16.8826 10.8082 19.446 13.9461 19.446Z" stroke="#69B7B3" stroke-miterlimit="10"/>
<path d="M21.7572 7.95504C23.0569 7.95504 24.1104 6.89336 24.1104 5.58371C24.1104 4.27407 23.0569 3.21239 21.7572 3.21239C20.4576 3.21239 19.4041 4.27407 19.4041 5.58371C19.4041 6.89336 20.4576 7.95504 21.7572 7.95504Z" fill="#69B7B3"/>
</svg>
