<svg width="31" height="31" viewBox="0 0 31 31" fill="none" xmlns="http://www.w3.org/2000/svg">
<path d="M24.453 30H6.54698C3.49776 30 1 27.5022 1 24.453V6.54698C1 3.49776 3.49776 1 6.54698 1H24.453C27.5022 1 30 3.49776 30 6.54698V24.453C30 27.5022 27.5022 30 24.453 30Z" stroke="#69B7B3" stroke-width="2" stroke-miterlimit="10"/>
<path d="M15.5008 21.8449C19.0045 21.8449 21.8449 19.0046 21.8449 15.5008C21.8449 11.9971 19.0045 9.15674 15.5008 9.15674C11.997 9.15674 9.15669 11.9971 9.15669 15.5008C9.15669 19.0046 11.997 21.8449 15.5008 21.8449Z" stroke="#69B7B3" stroke-width="2" stroke-miterlimit="10"/>
<path d="M24.226 9.10953C25.6771 9.10953 26.8535 7.93315 26.8535 6.48201C26.8535 5.03087 25.6771 3.85449 24.226 3.85449C22.7749 3.85449 21.5985 5.03087 21.5985 6.48201C21.5985 7.93315 22.7749 9.10953 24.226 9.10953Z" fill="#69B7B3"/>
</svg>
