<svg width="30" height="29" viewBox="0 0 30 29" fill="none" xmlns="http://www.w3.org/2000/svg">
<path d="M10.0017 7.78178L11.5182 11.3434C11.5182 11.3434 11.7002 12.4093 10.7643 13.3972C10.7643 13.3972 10.0104 14.5584 13.572 17.2275C17.1336 19.8965 16.9603 17.6694 16.9603 17.6694C16.9603 17.6694 18.0262 16.0662 18.6501 16.5082C19.2741 16.9502 21.5878 17.9381 21.5878 17.9381C21.5878 17.9381 23.1043 20.4338 19.898 21.4997C16.6917 22.5656 11.7002 19.1859 11.7002 19.1859C11.7002 19.1859 6.89069 15.0004 6.70871 12.1407C6.52673 9.28096 8.22522 7.77312 8.22522 7.77312H10.0017V7.78178Z" stroke="#69B7B3" stroke-miterlimit="10"/>
<path d="M28.5976 14.359C28.5976 21.9416 22.4536 28.0856 14.8624 28.0856C12.046 28.0856 9.42031 27.2363 7.23653 25.7805L0.971191 27.6523L2.92099 21.1443C1.77711 19.1425 1.12718 16.8288 1.12718 14.359C1.13584 6.77648 7.27986 0.632454 14.8624 0.632454C22.4449 0.632454 28.5976 6.77648 28.5976 14.359Z" stroke="#69B7B3" stroke-miterlimit="10"/>
</svg>
