<svg width="37" height="36" viewBox="0 0 37 36" fill="none" xmlns="http://www.w3.org/2000/svg">
<path d="M13.1129 9.79851L14.9793 14.1818C14.9793 14.1818 15.2032 15.4936 14.0514 16.7094C14.0514 16.7094 13.1236 18.1385 17.5069 21.4233C21.8902 24.7082 21.6769 21.9673 21.6769 21.9673C21.6769 21.9673 22.9887 19.9942 23.7566 20.5382C24.5244 21.0821 27.372 22.2979 27.372 22.2979C27.372 22.2979 29.2384 25.3694 25.2923 26.6812C21.3463 27.993 15.2032 23.8336 15.2032 23.8336C15.2032 23.8336 9.28417 18.6824 9.0602 15.163C8.83624 11.6436 10.9266 9.78784 10.9266 9.78784H13.1129V9.79851Z" stroke="#69B7B3" stroke-width="2" stroke-miterlimit="10"/>
<path d="M36 17.8933C36 27.2252 28.4385 34.7867 19.096 34.7867C15.6299 34.7867 12.3984 33.7415 9.71079 31.9498L2 34.2535L4.39962 26.244C2.99184 23.7804 2.19197 20.9329 2.19197 17.8933C2.20263 8.56148 9.76412 1 19.096 1C28.4279 1 36 8.56148 36 17.8933Z" stroke="#69B7B3" stroke-width="2" stroke-miterlimit="10"/>
</svg>
