<svg width="33" height="20" viewBox="0 0 33 20" fill="none" xmlns="http://www.w3.org/2000/svg">
<path d="M13.2945 3.97316L13.7904 3.90948L13.7875 3.88676L13.7825 3.86439L13.2945 3.97316ZM13.2945 3.97316C13.7904 3.90948 13.7905 3.90958 13.7905 3.90969L13.7905 3.91003L13.7907 3.91111L13.7911 3.91486L13.7928 3.92857L13.7991 3.97994C13.8043 4.02446 13.8118 4.08905 13.8206 4.17076C13.8381 4.33412 13.8611 4.56631 13.8831 4.8436C13.927 5.3964 13.9677 6.13628 13.9519 6.87035C13.9364 7.59199 13.866 8.35806 13.6633 8.93713C13.5623 9.22585 13.4111 9.51954 13.1707 9.72834C12.9073 9.95709 12.5713 10.0526 12.202 9.98048C11.8653 9.91468 11.5558 9.72277 11.2853 9.49658C11.0091 9.26575 10.7368 8.96798 10.4744 8.63694C9.94934 7.97467 9.42606 7.13055 8.95467 6.29328C8.48154 5.45293 8.05206 4.60388 7.71664 3.92529C7.61078 3.71112 7.51618 3.51798 7.43328 3.34874C7.24508 2.96452 7.11719 2.70342 7.05476 2.59881C6.85442 2.26308 6.67486 1.99171 6.54615 1.80527C6.52482 1.77438 6.5049 1.74584 6.48652 1.71974H1.44646L1.27607 1.9653C1.31795 2.08974 1.37868 2.2644 1.46042 2.48589C1.64275 2.97996 1.92957 3.70701 2.34475 4.62964C3.17511 6.47491 4.51879 9.1022 6.56664 12.2123C8.58656 15.28 10.6339 16.8623 12.1505 17.6783C12.9103 18.0871 13.5411 18.3058 13.9746 18.4219C14.1915 18.48 14.3591 18.5124 14.469 18.5301C14.5239 18.539 14.5644 18.5441 14.5893 18.5469C14.6018 18.5484 14.6104 18.5492 14.615 18.5496L14.6171 18.5498L14.6177 18.5498L14.6184 18.5499L14.6185 18.5499L14.6188 18.5499L14.6536 18.5523L14.6898 18.5602L14.6898 18.5602L14.6898 18.5602L14.6899 18.5603L14.6904 18.5604L14.6933 18.561L14.7067 18.5639L14.7616 18.5753C14.8103 18.5852 14.8822 18.5995 14.9731 18.6164C15.1551 18.6501 15.4124 18.6942 15.7114 18.7351C16.3163 18.8176 17.0648 18.8829 17.7029 18.8333C18.0589 18.8056 18.285 18.785 18.4492 18.7483C18.6009 18.7144 18.6371 18.6793 18.6516 18.6634C18.6754 18.6372 18.7234 18.5651 18.7731 18.3454C18.8226 18.1267 18.8612 17.8247 18.9086 17.3841C19.0081 16.4596 19.2348 15.7599 19.5031 15.2755C19.6367 15.0344 19.7874 14.8343 19.9492 14.6876C20.097 14.5536 20.3163 14.4087 20.581 14.4087C21.1494 14.4087 22.1716 14.7638 23.8786 16.9323C24.6793 17.944 25.3883 18.3991 25.8659 18.6055C26.106 18.7093 26.2927 18.7525 26.4101 18.7706C26.469 18.7796 26.511 18.7825 26.5341 18.7833C26.543 18.7836 26.5492 18.7836 26.5523 18.7836L26.5689 18.7825L26.5932 18.7831L26.5933 18.7831L26.5937 18.7831L26.5954 18.7832L26.6021 18.7834L26.6287 18.7841L26.7317 18.7867C26.8213 18.7889 26.951 18.792 27.1115 18.7954C27.4324 18.8023 27.8758 18.8105 28.3655 18.8159C29.3504 18.8269 30.5046 18.8266 31.2323 18.7838C31.9343 18.7425 32.0635 18.5799 32.0929 18.5351C32.1177 18.4972 32.141 18.4369 32.1598 18.3163C32.1692 18.2561 32.176 18.1915 32.1843 18.1115C32.1915 18.0412 32.1999 17.9583 32.2119 17.8732C32.2104 17.868 32.2056 17.8253 32.174 17.7306C32.1333 17.6084 32.0643 17.4467 31.9659 17.2518C31.7698 16.8635 31.4755 16.3799 31.1158 15.8769C30.3863 14.8569 29.444 13.8357 28.5822 13.3531C27.5164 12.7563 27.088 12.0424 26.9839 11.4034C26.9338 11.0966 26.9633 10.8334 27.0063 10.6448C27.0278 10.5503 27.0529 10.4731 27.0742 10.4167C27.0848 10.3885 27.0945 10.3652 27.1024 10.3473C27.1034 10.3451 27.1043 10.343 27.1053 10.3409C27.1081 10.3347 27.1106 10.3292 27.1129 10.3244L27.1169 10.3161L27.1186 10.3127L27.1193 10.3112L27.1197 10.3105C27.1198 10.3101 27.12 10.3098 27.5667 10.5345M13.2945 3.97316C13.7825 3.86439 13.7825 3.86426 13.7825 3.86412L13.7824 3.86379L13.7822 3.86297L13.7817 3.86073L13.7801 3.85383L13.7747 3.83073C13.77 3.81134 13.7632 3.78411 13.7543 3.75013C13.7365 3.68226 13.7099 3.58702 13.6741 3.47341C13.603 3.24787 13.4927 2.94191 13.3374 2.63145C13.184 2.32486 12.9743 1.98881 12.6944 1.72363C12.5891 1.6239 12.4707 1.53137 12.3392 1.45438C12.6907 1.32837 13.1141 1.20548 13.556 1.11369C14.3178 0.955475 15.4177 0.928827 16.4256 0.95915C17.4307 0.989386 18.2827 1.07389 18.5307 1.11682C18.6058 1.12981 18.6298 1.1435 18.66 1.17709C18.7077 1.23011 18.7998 1.37511 18.8793 1.74573C19.0395 2.49217 19.1042 3.92643 18.9163 6.67292C18.8682 7.37697 18.8704 7.94456 18.9164 8.39635C18.9618 8.84187 19.0528 9.20881 19.2066 9.4875C19.3685 9.78068 19.614 9.9957 19.9408 10.0586C20.2427 10.1167 20.5244 10.0265 20.7398 9.91816C21.1654 9.70418 21.5643 9.30069 21.8318 8.99681C21.9722 8.8374 22.0897 8.68983 22.1722 8.58204C22.2136 8.52797 22.2465 8.48348 22.2695 8.45198L22.2963 8.41478L22.3038 8.40421L22.306 8.40107L22.3067 8.40005L22.307 8.39968C22.3071 8.39953 22.3072 8.3994 21.8973 8.11305M21.8973 8.11305L22.3072 8.3994L22.3175 8.38467L22.3267 8.36924L21.8973 8.11305ZM21.8973 8.11305L22.3267 8.36916L22.3268 8.36899L22.3272 8.36838L22.3286 8.36605L22.334 8.35702L22.3548 8.32197L22.4342 8.18784C22.5029 8.07144 22.602 7.90301 22.7237 7.69441C22.9669 7.27732 23.3006 6.69914 23.6624 6.05483C24.3732 4.78939 25.2059 3.24539 25.6683 2.16893C25.6728 2.1629 25.6786 2.15531 25.686 2.14649C25.7149 2.11185 25.7653 2.05928 25.8414 2.00562C25.9871 1.90302 26.2523 1.7779 26.6987 1.79737L26.6989 1.79738C27.2812 1.82258 28.5746 1.8099 29.7043 1.79168C30.2731 1.78251 30.8064 1.77181 31.1975 1.76341C31.393 1.75921 31.5531 1.75558 31.6643 1.753L31.7685 1.75054C31.7772 1.75385 31.7875 1.75815 31.7986 1.76362C31.8433 1.78572 31.8943 1.82247 31.9329 1.88759C32.0014 2.00287 32.1452 2.41977 31.6117 3.50916C31.0714 4.6126 29.9692 6.28461 28.9836 7.70326C28.4942 8.4075 28.0395 9.04101 27.7071 9.49851C27.5409 9.72719 27.4054 9.91174 27.3115 10.039C27.2646 10.1026 27.2281 10.1518 27.2034 10.1851L27.1753 10.2229L27.1683 10.2323L27.1665 10.2347L27.1661 10.2352L27.166 10.2353L27.5667 10.5345M27.5667 10.5345L27.166 10.2354L27.1397 10.2706L27.12 10.3098L27.5667 10.5345Z" stroke="#69B7B3"/>
</svg>
