<svg width="56" height="33" viewBox="0 0 56 33" fill="none" xmlns="http://www.w3.org/2000/svg">
<path d="M0.806506 1.34705H10.534C10.534 1.34705 11.11 2.09708 11.8342 3.30734C12.5585 4.51761 17.2 15.1884 20.2614 15.785C23.3228 16.3816 22.0061 6.15402 22.0061 6.15402C22.0061 6.15402 21.1338 2.25049 18.9611 2.25049C16.7885 2.25049 19.4055 0.903858 22.2859 0.307248C25.1663 -0.289361 30.3345 0.136788 31.3221 0.307248C32.3096 0.477708 33.3795 1.33001 32.7211 10.9269C32.0627 20.5238 37.0664 13.3815 37.0664 13.3815C37.0664 13.3815 41.3293 6.2563 42.893 2.59141C42.893 2.59141 43.5513 1.39819 45.51 1.48342C47.4851 1.56865 54.4474 1.39819 54.4474 1.39819C54.4474 1.39819 56.8175 1.73911 54.8589 5.72787C52.9002 9.71664 46.9913 17.6089 46.9913 17.6089C46.9913 17.6089 45.8392 19.8931 49.1969 21.7682C52.5546 23.6432 56.1592 29.4048 55.9946 30.5127C55.83 31.6207 56.0769 32.7287 53.4598 32.8821C50.8428 33.0356 45.2631 32.8821 45.2631 32.8821C45.2631 32.8821 42.8107 33.0526 39.848 29.3195C36.9018 25.5865 35.3381 25.2455 34.7621 25.2455C34.186 25.2455 33.0338 26.6092 32.7046 29.6604C32.3755 32.7117 32.2109 32.7799 29.7913 32.9674C27.3718 33.1549 24.261 32.473 24.261 32.473C24.261 32.473 16.7227 31.9617 9.49702 21.0181C2.27138 10.0746 0 2.50618 0 2.50618L0.806506 1.34705Z" fill="#69B7B3"/>
</svg>
