<svg width="56" height="43" viewBox="0 0 56 43" fill="none" xmlns="http://www.w3.org/2000/svg">
<path d="M40.3728 21.2642H16.6271C15.7357 21.2642 15.0081 20.5366 15.0081 19.6452C15.0081 18.7538 15.7357 18.0262 16.6271 18.0262H40.3776C41.269 18.0262 41.9966 18.7538 41.9966 19.6452C41.9918 20.5366 41.2642 21.2642 40.3728 21.2642Z" fill="white"/>
<path d="M40.3728 28.2799H16.6271C15.7357 28.2799 15.0081 27.5523 15.0081 26.6609C15.0081 25.7694 15.7357 25.0418 16.6271 25.0418H40.3776C41.269 25.0418 41.9966 25.7694 41.9966 26.6609C41.9918 27.5523 41.2642 28.2799 40.3728 28.2799Z" fill="white"/>
<path d="M54.3032 21.6594C54.3032 32.6986 42.97 41.6466 28.9819 41.6466C25.5655 41.6466 22.3034 41.1117 19.3255 40.1432L3.66052 41.6466C6.56127 38.7458 6.8793 31.4169 6.8793 31.4169C4.8266 28.5306 3.66052 25.2058 3.66052 21.6594C3.66052 10.6201 14.9937 1.67212 28.9819 1.67212C42.97 1.6673 54.3032 10.6201 54.3032 21.6594Z" stroke="white" stroke-width="2" stroke-miterlimit="10"/>
</svg>
